<svg width="32px" height="32px" viewBox="0 0 32 32" fill="none" xmlns="http://www.w3.org/2000/svg"><g clip-path="url(#a)" fill="#fff"> 
    <path  d="M 14.046875 7.148438 L 19.4375 10.867188 L 24.964844 7.425781 L 19.59375 3.714844 Z M 14.046875 7.148438 "/>
    <path d="M 5.738281 19.429688 L 18.964844 28.695312 L 13.417969 32.128906 L 0 22.859375 Z M 5.738281 19.429688 "/>
    <path  d="M 5.738281 12.300781 L 0 8.585938 L 0 22.859375 L 5.738281 19.429688 Z M 5.738281 12.300781 "/>
    <path  d="M 5.738281 12.300781 L 0 8.585938 L 14.214844 0 L 19.59375 3.714844 Z M 5.738281 12.300781 "/>
    <path  d="M 18.964844 28.695312 L 24.964844 25.269531 L 19.261719 21.484375 L 13.636719 24.964844 Z M 18.964844 28.695312 "/>
    <path  d="M 24.964844 25.269531 L 24.964844 18.128906 L 19.328125 14.421875 L 13.777344 17.851562 Z M 24.964844 25.269531 "/></g></svg>

   